PathFileType	3	(X/Y/Z)	D:\Jess\PFP\Labelled\PA02\20250516\SRRun01.trc
DataRate	CameraRate	NumFrames	NumMarkers	Units	OrigDataRate	OrigDataStartFrame	OrigNumFrames
250.0	250.0	4	37	mm	250.0	35937	2501
Frame#	Time	C7			T10			CLAV			LSHO			RSHO			LASIS			RASIS			LPSIS			RPSIS			LILCR			RILCR			LGTR			LTHI			LLTHI			LLEP			LMEP			LPSH			LLSH			LDSH			LLMAL			LMMAL			LTOE			L5TH			LHEE			RGTR			RTHI			RLTHI			RLEP			RMEP			RPSH			RLSH			RDSH			RLMAL			RMMAL			RTOE			R5TH			RHEE			
		X1	Y1	Z1	X2	Y2	Z2	X3	Y3	Z3	X4	Y4	Z4	X5	Y5	Z5	X6	Y6	Z6	X7	Y7	Z7	X8	Y8	Z8	X9	Y9	Z9	X10	Y10	Z10	X11	Y11	Z11	X12	Y12	Z12	X13	Y13	Z13	X14	Y14	Z14	X15	Y15	Z15	X16	Y16	Z16	X17	Y17	Z17	X18	Y18	Z18	X19	Y19	Z19	X20	Y20	Z20	X21	Y21	Z21	X22	Y22	Z22	X23	Y23	Z23	X24	Y24	Z24	X25	Y25	Z25	X26	Y26	Z26	X27	Y27	Z27	X28	Y28	Z28	X29	Y29	Z29	X30	Y30	Z30	X31	Y31	Z31	X32	Y32	Z32	X33	Y33	Z33	X34	Y34	Z34	X35	Y35	Z35	X36	Y36	Z36	X37	Y37	Z37	

938	143.744	879.4226894218737	1495.577035976864	-333.0233839844688	799.5648531968484	1245.043590736565	-362.3241458102688	1009.128366610315	1411.680809312953	-275.215880958455	1006.560348878739	1452.699667572992	-452.8924554944208	893.5492959319374	1453.675570904765	-144.3236510693968	999.7188158945543	973.0642085232133	-450.2796539555768	988.9075967480945	973.6167416017936	-218.8628237494129	790.1159815900054	1068.664988464509	-358.6967732162069	780.5784920406953	1068.38212077673	-310.0198210134412	955.6786173745297	1073.079846531271	-481.8079424878541	899.5967800327325	1060.29519003988	-140.5957804714598	906.7243388181411	878.6374714185606	-521.3396520910056	950.7824261916979	693.7784508254109	-431.0393928368218	799.1137222179182	627.522558600814	-477.3250938457118	755.6062405937527	520.7910205758513	-449.815430223695	nan	nan	nan	708.9829401386486	400.5267497326599	-399.4396508418542	563.2346535835522	411.0988183220483	-441.8635579720385	537.6246884194884	311.2422640587978	-384.5469126667683	408.3972208737131	311.663788473544	-410.0196422339483	nan	nan	nan	403.8621809007175	152.7674721124379	-388.1920214432493	355.5871295538926	176.1289815594822	-422.1213622811709	378.4942808671281	364.2752689603849	-353.0192148616073	900.6698143292049	886.3866089013378	-111.053454475708	1060.545056073453	778.9358298382264	-222.0796712298657	996.4833517627377	648.9235324387932	-155.5377203879317	1053.999002132482	526.4554478556701	-189.7935000143056	nan	nan	nan	1102.330373044979	423.691790511229	-247.1185138978625	1045.905844375763	309.1493940785142	-187.8637933862827	1106.057536771506	213.8074749747329	-261.7488241148843	1059.501468667733	102.9113369553253	-235.718382849284	nan	nan	nan	1199.156352860827	81.57403485859156	-241.2805174145396	1174.746550962483	52.05190757565623	-211.6450050449985	999.1339005775566	81.0879329691779	-309.0444265151103	
939	143.748	879.2021350095873	1492.979473408391	-332.4522586625847	799.1844613076532	1241.911016799672	-361.0391014540459	1009.283458218021	1408.571636455252	-275.2520430329936	1006.20383190392	1449.479965078692	-453.6197517894417	893.7189567830302	1450.674644196611	-143.362858251849	1000.099196183005	971.0659099242537	-449.4853816554037	988.8144801436196	971.0565515187411	-217.8325576158104	789.9525470392947	1065.222747131808	-358.4985210679238	780.137826852922	1064.730678687516	-309.8044142698441	955.5401552183941	1070.916652869245	-481.59488083355	899.9667419121911	1056.190852138235	-139.5550154844937	908.3022336588583	875.3058978560671	-520.6644800856496	953.7133281637363	691.339064981439	-430.1750213337916	803.5661547002419	622.4503862037682	-477.6578225995009	761.1227205805078	516.4302964807401	-450.6386538263111	nan	nan	nan	713.1107844542498	397.5216544117023	-400.0560487684323	567.373080746838	411.1279213619857	-442.4901909165166	539.6494838718588	312.2628988287472	-384.8485629013473	410.525763151571	315.4391234331487	-410.7162076547449	nan	nan	nan	403.6663452143812	156.8804105420978	-388.775624758321	355.7671079165377	180.8909196744316	-422.8316468860273	381.2076770877318	368.6858235414967	-353.8536229571836	899.8468867979761	882.0789189260472	-110.9093088391551	1061.823380553952	776.9097659259209	-220.5194742080612	996.7783123117706	645.7616760197343	-155.8276632162027	1053.789694785832	523.3570153119075	-189.8283506064046	nan	nan	nan	1101.216984588022	420.4991913588536	-247.3654997438776	1042.649465368863	307.0075722730408	-188.9148788769446	1100.7085290888	211.1106071656794	-263.6334635889089	1051.386244747227	102.3267699357022	-237.4810835369776	nan	nan	nan	1190.780386378889	78.87353338985135	-242.5603342946586	1165.492063697764	50.84770923972963	-212.1221651727317	990.5173090231598	81.01715559185219	-310.614967105908	
940	143.752	878.9577748622014	1490.401599581145	-331.8785482693036	798.7612719106718	1238.72566317335	-359.7370456628724	1009.439387019914	1405.377700441366	-275.3433649015946	1005.806608754011	1446.214383546036	-454.432680068535	893.9054152647593	1447.596038303075	-142.3413070828026	1000.398086744073	968.9399676674414	-448.6970356462158	988.668737292619	968.4338549273713	-216.7144918588191	789.627683134558	1061.440650674693	-358.2680025871305	779.5339740159944	1060.772224589139	-309.5505584722771	955.3063835755065	1068.54318500442	-481.5091796294079	900.231014823407	1051.859012439035	-138.3864935667147	909.9191453069409	871.8031229953376	-520.0104147081432	956.6040477917281	688.933887868172	-429.3743113021133	808.040186370083	617.4587823713923	-478.0133246492192	766.6812026685194	512.1904483307676	-451.5269130523303	nan	nan	nan	717.4715620184189	394.6119406039331	-400.7291287232127	571.7745027235482	411.1057405828136	-443.1834714088196	542.0830401098873	313.2504067756336	-385.2483287678848	413.1097913999422	319.0652571954802	-411.4521815560207	nan	nan	nan	404.0574119831489	160.8419407864386	-389.4750476470549	356.5092540405375	185.4816212890063	-423.6227409244801	384.3669601679715	372.8989173897776	-354.6866380875481	899.0560721029083	877.7307326936981	-110.6713837506035	1063.103170895781	774.9656262712047	-218.8411276283117	996.8053678397266	642.6054230070126	-156.1087494297482	1053.38250022434	520.289326965811	-189.7905796782249	nan	nan	nan	1100.026188628313	417.3928958263268	-247.6883550324481	1039.386091657847	305.0584874234526	-189.9490577598252	1095.167003943344	208.6102119501659	-265.5608829065312	1043.064179988475	101.9624729412576	-239.249602986649	nan	nan	nan	1182.122561450384	76.46924738114889	-243.8537454931942	1156.028903103305	49.90981447307531	-212.626475022295	981.643131396337	81.0469941697408	-312.0947352057849	
941	143.756	878.7015090116101	1487.870221703668	-331.3028379030261	798.2915789462863	1235.517070063231	-358.4229486092952	1009.598949058814	1402.120401505463	-275.4886863456314	1005.372844157123	1442.92300217446	-455.3241899786979	894.11582388191	1444.455306668162	-141.2601524626844	1000.608880813849	966.6854762324302	-447.913769774242	988.4683541919653	965.7558467779098	-215.5025724981976	789.1329061952473	1057.334930024638	-358.0160057038829	778.7659005236277	1056.53332523778	-309.2666318517076	954.9789838370157	1065.951430793948	-481.5544469655603	900.3675946598158	1047.330082656489	-137.097231114483	911.5841267679605	868.158479641086	-519.3846505316232	959.4552394313539	686.5930046795471	-428.6437108839555	812.5260111753834	612.5959511539427	-478.3839675992287	772.2826384216212	508.1001900024546	-452.4682237446138	nan	nan	nan	722.0668376875687	391.8049185798204	-401.4538324324612	576.4364139592784	411.0306919909556	-443.9380205122175	544.9241159274043	314.1929533656779	-385.7403082697647	416.1402834536664	322.5244077238592	-412.2219262598133	nan	nan	nan	405.0431698938136	164.6279337973393	-390.2913267966083	357.8216945328317	189.8730010270712	-424.4992527536542	387.9506123644817	376.8902440735018	-355.5123166681087	898.2925262634769	873.3942239237656	-110.3298319757629	1064.339592669706	773.0916672900154	-217.0538415641076	996.5472502004229	639.4928062196121	-156.3624278207974	1052.798300409018	517.310628847882	-189.6726164179122	nan	nan	nan	1098.755637392065	414.4218400788618	-248.0922696735632	1036.128540678942	303.3336536839925	-190.9419409299006	1089.457565566552	206.3336920187236	-267.4857970191378	1034.581199440489	101.8158575897774	-240.9927161357309	nan	nan	nan	1173.231184675822	74.37030017560956	-245.1301469174466	1146.411123397968	49.22338134249033	-213.1457446069734	972.5667094457201	81.1829592085121	-313.4656141521692	
